<svg xmlns="http://www.w3.org/2000/svg" viewBox="0 0 500 500"><g id="freepik--space-ship--inject-61"><path d="M252,46.5c1.76,14-14,27.53-32.9,29.91s-37.51-6.85-39.27-20.86,13.84-28.42,32.79-30.8S250.23,32.48,252,46.5Z" style="fill:#c7c7c7"></path><ellipse cx="224.59" cy="30.87" rx="4.79" ry="7.89" transform="translate(174.35 251.93) rotate(-85.02)" style="fill:#dbdbdb"></ellipse><ellipse cx="217.36" cy="62.63" rx="97.4" ry="19" transform="translate(-6.1 27.52) rotate(-7.15)" style="fill:#a6a6a6"></ellipse><ellipse cx="217.51" cy="63.78" rx="97.4" ry="19" transform="translate(-6.24 27.55) rotate(-7.15)" style="fill:#c7c7c7"></ellipse><path d="M170.2,57.38c3.25.17,5.88.47,8.37.8a45.37,45.37,0,0,1,6.34,1.24c-3.26-.16-5.89-.46-8.38-.8A42.48,42.48,0,0,1,170.2,57.38Z" style="fill:#a6a6a6"></path><path d="M137.85,66.7c4.61-.34,8.86-.52,13-.68s8.19-.24,11.89-.21c-4.61.34-8.87.53-13,.68S141.55,66.73,137.85,66.7Z" style="fill:#a6a6a6"></path><path d="M126.85,75.23c4.73-.74,9.47-1.37,14.21-2s9.49-1.15,14.26-1.6c-4.73.74-9.47,1.37-14.21,2S131.61,74.78,126.85,75.23Z" style="fill:#a6a6a6"></path><path d="M140.14,80.69c3.58-1,7.53-1.84,11.57-2.73s8.26-1.75,12.81-2.56c-3.58.95-7.53,1.85-11.58,2.73S144.69,79.88,140.14,80.69Z" style="fill:#a6a6a6"></path><path d="M174.16,81.63A43.21,43.21,0,0,1,180,78.86c2.32-.93,4.8-1.88,7.92-2.84a44.46,44.46,0,0,1-5.84,2.77C179.75,79.72,177.28,80.66,174.16,81.63Z" style="fill:#a6a6a6"></path><path d="M219,80.14a18,18,0,0,1-1-4.23,17.48,17.48,0,0,1-.08-4.34,18,18,0,0,1,1,4.22A17.55,17.55,0,0,1,219,80.14Z" style="fill:#a6a6a6"></path><path d="M216,56.28a18.71,18.71,0,0,1-1-4.23A18.05,18.05,0,0,1,215,47.7a18.16,18.16,0,0,1,1,4.23A17.55,17.55,0,0,1,216,56.28Z" style="fill:#a6a6a6"></path><path d="M264.82,70.18c-3.25-.17-5.89-.47-8.37-.8a43.42,43.42,0,0,1-6.34-1.24c3.26.16,5.89.47,8.37.8A45.37,45.37,0,0,1,264.82,70.18Z" style="fill:#a6a6a6"></path><path d="M297.17,60.87c-4.61.33-8.87.52-13,.67s-8.19.25-11.89.21c4.61-.33,8.86-.52,13-.68S293.46,60.83,297.17,60.87Z" style="fill:#a6a6a6"></path><path d="M308.17,52.33c-4.73.74-9.47,1.37-14.21,2s-9.5,1.15-14.26,1.6c4.73-.74,9.47-1.37,14.21-2S303.4,52.78,308.17,52.33Z" style="fill:#a6a6a6"></path><path d="M294.87,46.87c-3.57,1-7.53,1.85-11.57,2.73s-8.25,1.75-12.8,2.57c3.57-1,7.53-1.85,11.57-2.74S290.33,47.68,294.87,46.87Z" style="fill:#a6a6a6"></path><path d="M260.85,45.93A43.61,43.61,0,0,1,255,48.7c-2.33.94-4.8,1.88-7.92,2.84a45.13,45.13,0,0,1,5.84-2.77C255.26,47.84,257.74,46.9,260.85,45.93Z" style="fill:#a6a6a6"></path><path d="M312.16,49.58A.84.84,0,1,1,312,48a.84.84,0,1,1,.2,1.63Z" style="fill:#90CAF9"></path><path d="M122.28,73.38a.83.83,0,1,1-.21-1.62.83.83,0,1,1,.21,1.62Z" style="fill:#90CAF9"></path><path d="M136.55,63.59a.83.83,0,1,1,.88-.94A.93.93,0,0,1,136.55,63.59Z" style="fill:#90CAF9"></path><path d="M169,53.45a.83.83,0,1,1,.88-.93A.91.91,0,0,1,169,53.45Z" style="fill:#90CAF9"></path><path d="M214.39,45.5a.83.83,0,1,1,.88-.93A.92.92,0,0,1,214.39,45.5Z" style="fill:#90CAF9"></path><path d="M260.63,41.85a.83.83,0,1,1,.88-.93A.92.92,0,0,1,260.63,41.85Z" style="fill:#90CAF9"></path><path d="M295,43.52a.83.83,0,1,1,.87-.93A.9.9,0,0,1,295,43.52Z" style="fill:#90CAF9"></path><path d="M277.33,66.16a2.88,2.88,0,0,1-.29,1.59l-.24.47-3.34,6.37L166,88.06l-4.86-5.39-.31-.34h0a2.87,2.87,0,0,1-.66-1.47c-.84-6.66,24.72-15.35,57.09-19.4S276.49,59.49,277.33,66.16Z" style="fill:#a6a6a6"></path><ellipse cx="219.53" cy="79.89" rx="54.62" ry="11.24" transform="translate(-8.23 27.93) rotate(-7.15)" style="fill:#c7c7c7"></ellipse><path d="M218.3,72.87c-2.87.36-3.32-.26-3.39-.85s.21-1.29,3.08-1.65,3.32.26,3.39.84S221.17,72.51,218.3,72.87Z" style="fill:#dbdbdb"></path><path d="M195,77a9.3,9.3,0,0,1-2.34,0c-.95-.16-1.06-.74-1.06-1,0-.91,1.23-1.2,1.82-1.34.39-.09.82-.16,1.26-.22a9.9,9.9,0,0,1,2.35,0c.94.17,1.05.74,1.06,1,0,.92-1.23,1.2-1.83,1.34C195.89,76.82,195.45,76.89,195,77Z" style="fill:#dbdbdb"></path><path d="M178.33,82.16c-.45,0-.89.08-1.28.09-.61,0-1.89,0-2.1-.85,0-.23-.09-.81.79-1.2a8.88,8.88,0,0,1,2.28-.54,11.76,11.76,0,0,1,1.28-.1c.61,0,1.88,0,2.09.85.06.23.09.81-.78,1.21A9.92,9.92,0,0,1,178.33,82.16Z" style="fill:#dbdbdb"></path><path d="M172.73,87.09c-2.87.36-3.32-.26-3.4-.84s.22-1.3,3.09-1.66,3.32.26,3.39.84S175.6,86.73,172.73,87.09Z" style="fill:#dbdbdb"></path><path d="M179.71,90.43a9.79,9.79,0,0,1-2.34,0c-1-.17-1.06-.74-1.06-1,0-.91,1.23-1.2,1.82-1.34.39-.09.82-.16,1.26-.22a9.9,9.9,0,0,1,2.35,0c.94.17,1,.74,1.06,1,0,.91-1.23,1.2-1.83,1.34C180.59,90.3,180.15,90.37,179.71,90.43Z" style="fill:#dbdbdb"></path><path d="M197.4,91.28a11.76,11.76,0,0,1-1.28.1c-.61,0-1.88,0-2.1-.85-.05-.23-.09-.82.79-1.21a9.32,9.32,0,0,1,2.28-.54c.44,0,.89-.09,1.28-.1.61,0,1.88,0,2.1.85.05.24.09.82-.79,1.21A9.32,9.32,0,0,1,197.4,91.28Z" style="fill:#dbdbdb"></path><path d="M221.06,89.41c-2.86.36-3.32-.26-3.39-.84s.21-1.29,3.08-1.65,3.32.26,3.39.84S223.93,89.06,221.06,89.41Z" style="fill:#dbdbdb"></path><path d="M244.36,85.33a8.91,8.91,0,0,1-2.35,0c-.94-.16-1-.74-1-1,0-.92,1.22-1.21,1.82-1.34a11,11,0,0,1,1.26-.22,9.32,9.32,0,0,1,2.35,0c.94.17,1.05.74,1.05,1,0,.92-1.22,1.2-1.82,1.34A11,11,0,0,1,244.36,85.33Z" style="fill:#dbdbdb"></path><path d="M261,80.13c-.45.05-.89.09-1.28.1-.61,0-1.89,0-2.1-.85-.05-.24-.09-.82.79-1.21a9.32,9.32,0,0,1,2.28-.54,11.76,11.76,0,0,1,1.28-.1c.61,0,1.88,0,2.09.85.06.23.09.82-.78,1.21A9.92,9.92,0,0,1,261,80.13Z" style="fill:#dbdbdb"></path><path d="M266.64,75.19c-2.87.36-3.32-.26-3.39-.84s.21-1.29,3.08-1.65,3.32.26,3.39.84S269.51,74.83,266.64,75.19Z" style="fill:#dbdbdb"></path><path d="M259.66,71.85a8.91,8.91,0,0,1-2.35,0c-.94-.16-1.05-.73-1.05-1,0-.92,1.22-1.21,1.82-1.34a11,11,0,0,1,1.26-.22,8.92,8.92,0,0,1,2.35,0c.94.16,1.05.73,1.06,1,0,.92-1.23,1.21-1.83,1.34A11,11,0,0,1,259.66,71.85Z" style="fill:#dbdbdb"></path><path d="M242,71a11.76,11.76,0,0,1-1.28.1c-.61,0-1.88,0-2.09-.85-.06-.23-.09-.81.78-1.21a9.92,9.92,0,0,1,2.28-.54c.45,0,.89-.08,1.28-.09.61,0,1.89,0,2.1.84.05.24.09.82-.78,1.21A9,9,0,0,1,242,71Z" style="fill:#dbdbdb"></path><path d="M220.5,71.32c0,.23-1,.55-2.3.72s-2.38.1-2.41-.13,1-.55,2.3-.71S220.47,71.09,220.5,71.32Z" style="fill:#90CAF9"></path><path d="M196.87,75.24c.67.11.32.42-.79.67a10.15,10.15,0,0,1-3.24.25c-.67-.11-.32-.42.79-.67A10.13,10.13,0,0,1,196.87,75.24Z" style="fill:#90CAF9"></path><path d="M179.3,80.4c1.14,0,1.56.18.94.46a10.21,10.21,0,0,1-3.2.55c-1.14,0-1.56-.18-.93-.46A10.08,10.08,0,0,1,179.3,80.4Z" style="fill:#90CAF9"></path><path d="M172.52,85.42c1.3-.16,2.38-.11,2.41.12s-1,.55-2.31.72-2.37.11-2.4-.12S171.22,85.59,172.52,85.42Z" style="fill:#90CAF9"></path><path d="M178.33,89a10.13,10.13,0,0,1,3.24-.25c.67.11.32.42-.8.67a10.07,10.07,0,0,1-3.23.25C176.87,89.53,177.22,89.22,178.33,89Z" style="fill:#90CAF9"></path><path d="M195.18,90.08a10.47,10.47,0,0,1,3.2-.56c1.14,0,1.55.18.93.46a10.18,10.18,0,0,1-3.2.56C195,90.57,194.56,90.36,195.18,90.08Z" style="fill:#90CAF9"></path><path d="M218.55,88.46c0-.23,1-.55,2.31-.71s2.37-.11,2.4.12-1,.55-2.3.71S218.58,88.69,218.55,88.46Z" style="fill:#90CAF9"></path><path d="M242.19,84.55c-.68-.12-.32-.42.79-.68a10.09,10.09,0,0,1,3.23-.25c.68.12.32.42-.79.68A10.39,10.39,0,0,1,242.19,84.55Z" style="fill:#90CAF9"></path><path d="M259.75,79.39c-1.14,0-1.56-.18-.93-.46a10.05,10.05,0,0,1,3.19-.56c1.14,0,1.56.18.94.46A10.47,10.47,0,0,1,259.75,79.39Z" style="fill:#90CAF9"></path><path d="M266.53,74.36c-1.3.16-2.37.11-2.4-.12s1-.55,2.3-.71,2.38-.11,2.41.12S267.83,74.2,266.53,74.36Z" style="fill:#90CAF9"></path><path d="M260.72,70.82a10.39,10.39,0,0,1-3.23.25c-.68-.12-.32-.42.79-.68a10.39,10.39,0,0,1,3.23-.25C262.19,70.26,261.83,70.56,260.72,70.82Z" style="fill:#90CAF9"></path><path d="M243.87,69.71a10.08,10.08,0,0,1-3.19.55c-1.14,0-1.56-.18-.94-.46a10.47,10.47,0,0,1,3.2-.56C244.08,69.22,244.5,69.43,243.87,69.71Z" style="fill:#90CAF9"></path><path d="M261.37,78.56a1.62,1.62,0,0,1-.21,1l-.17.31-2.4,4.15-75.88,9.51-3.39-3.46-.21-.21h0a1.82,1.82,0,0,1-.45-.95c-.54-4.31,17.54-10.12,40.38-13S260.83,74.25,261.37,78.56Z" style="fill:#dbdbdb"></path><path d="M258.78,83.09c.5,4-16.22,9.36-37.35,12s-38.65,1.56-39.15-2.42,16.22-9.36,37.34-12S258.28,79.1,258.78,83.09Z" style="fill:#ebebeb"></path><path d="M239.92,85.45c.22,1.75-8.28,4.25-19,5.59s-19.58,1-19.79-.73,8.28-4.24,19-5.59S239.7,83.71,239.92,85.45Z" style="fill:#90CAF9"></path><path d="M219.54,81.68a1.31,1.31,0,0,1,.59.92,1.26,1.26,0,0,1-.34,1,1.31,1.31,0,0,1-.59-.92A1.33,1.33,0,0,1,219.54,81.68Z" style="fill:#c7c7c7"></path><path d="M202,84.75a31.47,31.47,0,0,1,3.28.41,14.41,14.41,0,0,1,2.48.59c-1.27-.1-2.3-.25-3.28-.41A15.67,15.67,0,0,1,202,84.75Z" style="fill:#c7c7c7"></path><path d="M189.4,88.66c1.8-.12,3.46-.18,5.09-.22s3.2,0,4.65,0c-1.8.11-3.46.17-5.09.21S190.85,88.7,189.4,88.66Z" style="fill:#c7c7c7"></path><path d="M185.15,92.35c1.85-.29,3.69-.54,5.55-.77s3.7-.45,5.56-.62c-1.84.3-3.69.54-5.54.78S187,92.19,185.15,92.35Z" style="fill:#c7c7c7"></path><path d="M190.38,94.85c1.4-.39,2.94-.76,4.51-1.13s3.22-.72,5-1c-1.39.4-2.93.77-4.51,1.13S192.16,94.52,190.38,94.85Z" style="fill:#c7c7c7"></path><path d="M203.69,95.49A16.13,16.13,0,0,1,206,94.3,31.23,31.23,0,0,1,209,93.1a15.19,15.19,0,0,1-2.27,1.18C205.87,94.68,204.91,95.08,203.69,95.49Z" style="fill:#c7c7c7"></path><path d="M221.52,94.08a1.29,1.29,0,0,1-.59-.92,1.25,1.25,0,0,1,.34-1,1.29,1.29,0,0,1,.59.92A1.32,1.32,0,0,1,221.52,94.08Z" style="fill:#c7c7c7"></path><path d="M239.07,91c-1.27-.1-2.3-.25-3.28-.41a15.41,15.41,0,0,1-2.48-.59,31.47,31.47,0,0,1,3.28.41A16,16,0,0,1,239.07,91Z" style="fill:#c7c7c7"></path><path d="M251.66,87.11c-1.8.12-3.46.17-5.09.21s-3.21.06-4.65,0c1.8-.12,3.46-.18,5.09-.22S250.21,87.07,251.66,87.11Z" style="fill:#c7c7c7"></path><path d="M255.91,83.41c-1.85.3-3.7.54-5.55.78s-3.7.45-5.56.61c1.84-.29,3.69-.54,5.54-.78S254.05,83.58,255.91,83.41Z" style="fill:#c7c7c7"></path><path d="M250.67,80.91c-1.39.4-2.93.77-4.5,1.13s-3.22.72-5,1c1.39-.39,2.93-.77,4.5-1.13S248.9,81.24,250.67,80.91Z" style="fill:#c7c7c7"></path><path d="M237.36,80.28a16,16,0,0,1-2.26,1.18c-.9.4-1.87.8-3.08,1.21a16.13,16.13,0,0,1,2.27-1.19A32,32,0,0,1,237.36,80.28Z" style="fill:#c7c7c7"></path></g><g id="freepik--Light--inject-61"><g style="opacity:0.9"><path d="M390,475.32v0H143.77l57.37-385h0a.06.06,0,0,1,0,0c-.21-1.66,7.55-4,17.59-5.4l1.4-.19.91-.11c10.31-1.21,18.68-.85,18.89.84a.06.06,0,0,1,0,0h0L389.66,474.54l.31.73,0,.05Z" style="fill:#90CAF9"></path><g style="opacity:0.4"><path d="M390,475.32v0H143.77l57.37-385h0a.06.06,0,0,1,0,0c-.21-1.66,7.55-4,17.59-5.4l1.4-.19.91-.11c10.31-1.21,18.68-.85,18.89.84a.06.06,0,0,1,0,0h0L389.66,474.54l.31.73,0,.05Z" style="fill:#fff"></path></g><g style="opacity:0.4"><path d="M358.28,475.34h-186L206.61,89.66h0s0,0,0,0c-.21-1.64,5.11-3.67,12.12-4.72l1.4-.19.91-.11c7.28-.8,13.2-.15,13.41,1.53,0,0,0,0,0,0h0Z" style="fill:#fff"></path></g><g style="opacity:0.4"><path d="M338.28,475.34h-146L206.61,89.66h0s0,0,0,0c-.21-1.64,5.11-3.67,12.12-4.72l1.4-.19.91-.11c7.28-.8,13.2-.15,13.41,1.53,0,0,0,0,0,0h0Z" style="fill:#fff"></path></g></g></g></svg>